<svg id="Layer_1" data-name="Layer 1" xmlns="http://www.w3.org/2000/svg" viewBox="0 0 136.35 24"><defs><style>.cls-1{fill:#fff;}</style></defs><title>alen-nav-logo</title><path class="cls-1" d="M502.65,177.1H482.89V157.59a.2.2,0,0,0,0-.13,1.22,1.22,0,0,0-1.18-.92,1.23,1.23,0,0,0-1.18.9.42.42,0,0,0,0,.15V179a.27.27,0,0,0,.27.28h21.93a1.08,1.08,0,0,0,.78-.34l.13-.15,0-.05.07-.14,0-.12s0-.07,0-.08a.82.82,0,0,0,0-.22,1.09,1.09,0,0,0-1.09-1.1" transform="translate(-442.32 -156.54)"/><path class="cls-1" d="M569.7,156.54a1.21,1.21,0,0,0-1.21,1.21v19.07l-24.94-19.44-.63-.5,0,0a1.57,1.57,0,0,0-2.47.93h0a1.37,1.37,0,0,0,0,.34v20a1.22,1.22,0,1,0,2.44,0V159.71l24.4,19a.52.52,0,0,0,.11.1l.05,0,.12.07,0,0,.11.06.07,0,.12,0,.39.11.15,0h.06l.22,0a2.26,2.26,0,0,0,2.24-2,.53.53,0,0,0,0-.14V157.75a1.21,1.21,0,0,0-1.21-1.21" transform="translate(-442.32 -156.54)"/><path class="cls-1" d="M474.57,179h0Zm-24.74-7.62L459,159.06l9.14,12.35Zm25.67,6-14.94-20.14s0,0,0,0a1.87,1.87,0,0,0-3,0s0,0,0,0l-15,20.2a.08.08,0,0,0,0,0,1.11,1.11,0,0,0,.26,1.53,1,1,0,0,0,.17.1l.05,0,.14,0,.06,0,.23,0,.21,0,.07,0,.17,0,.07,0,.16-.1.05,0a1.53,1.53,0,0,0,.18-.18h0l3.88-5.27h21.5l3.89,5.23v0h0a1.07,1.07,0,0,0,.18.19s0,0,.06,0l.16.1.07,0a.6.6,0,0,0,.19.06h.05l.22,0s.05,0,.05,0l.19,0,.07,0,.14-.05.05,0,.18-.11a1.16,1.16,0,0,0,.27-1.58l0,0" transform="translate(-442.32 -156.54)"/><path class="cls-1" d="M507.35,160.9a.8.8,0,0,0,.15.2.5.5,0,0,0,.15.14l.09.06.08,0,.12,0,.06,0,.19,0h.06a1.07,1.07,0,0,0,.66-.24l0,0a8,8,0,0,1,5.76-2.4,12.71,12.71,0,0,1,4.76,1.06l4,1.68.06,0a15.73,15.73,0,0,0,5,1.12c2.54,0,4.67-1,7.12-3.48a1,1,0,0,0,.3-1.12v0l-.08-.16a.61.61,0,0,0-.12-.16.67.67,0,0,0-.15-.14l-.1-.07-.07,0a.55.55,0,0,0-.13,0l-.06,0a.58.58,0,0,0-.19,0H535a1,1,0,0,0-.63.22s-.05,0-.06,0c-2.43,2.34-3.94,2.79-5.75,2.79a13.36,13.36,0,0,1-4.2-1l-4-1.67a14.84,14.84,0,0,0-5.62-1.23,10,10,0,0,0-7.08,3.1l0,0a1,1,0,0,0-.31,1,1.35,1.35,0,0,0,.09.26" transform="translate(-442.32 -156.54)"/><path class="cls-1" d="M507.94,170.6l.06,0,.19,0h.05a1,1,0,0,0,.64-.23l0,0A8.08,8.08,0,0,1,514.7,168a9.57,9.57,0,0,1,4.7,1l.62.3a17.51,17.51,0,0,0,7.13,2,6.81,6.81,0,0,0,1.24-.11l.12,0,.09,0,.08,0a1.27,1.27,0,0,0,.71-.64,1.25,1.25,0,0,0,0-.95,1.23,1.23,0,0,0-.95-.8l-.11,0h-.32a.9.9,0,0,0-.22.06l-.09,0a2.75,2.75,0,0,1-1,.16A15.46,15.46,0,0,1,521,167.3l-.38-.18-.25-.12a11.75,11.75,0,0,0-5.69-1.26,9.85,9.85,0,0,0-7.13,3.16,1,1,0,0,0-.31.94,1.41,1.41,0,0,0,.09.27,1.13,1.13,0,0,0,.15.21.67.67,0,0,0,.15.14l.1,0s.05,0,.06,0l.13,0" transform="translate(-442.32 -156.54)"/><path class="cls-1" d="M536.5,175.92a1,1,0,0,0-.07-.15l-.12-.17-.15-.14-.11-.06-.07,0-.13-.05-.05,0a.6.6,0,0,0-.2,0h-.06a1.07,1.07,0,0,0-.64.21l-.06,0c-2.42,2.34-3.94,2.79-5.74,2.79a13.64,13.64,0,0,1-4.21-1l-4-1.68a14.76,14.76,0,0,0-5.61-1.22,10,10,0,0,0-7.08,3.09l-.05,0a1.05,1.05,0,0,0-.31,1,1.43,1.43,0,0,0,.1.25,1.1,1.1,0,0,0,.14.21.93.93,0,0,0,.15.13l.09.06.08,0,.12,0,.06,0a1.08,1.08,0,0,0,.19,0h.06a1,1,0,0,0,.66-.24l0,0a8,8,0,0,1,5.76-2.39,12.59,12.59,0,0,1,4.75,1.05l4,1.68.05,0a15.74,15.74,0,0,0,5,1.12c2.53,0,4.66-1,7.12-3.48a1,1,0,0,0,.29-1.12v0" transform="translate(-442.32 -156.54)"/><path class="cls-1" d="M576,161.16a2,2,0,1,1,1.93-2,1.95,1.95,0,0,1-1.93,2m0-4.62a2.61,2.61,0,1,0,2.67,2.6,2.64,2.64,0,0,0-2.67-2.6" transform="translate(-442.32 -156.54)"/><path class="cls-1" d="M575.91,159h-.26v-.64l.29,0c.31,0,.48.12.48.34s-.22.32-.51.32m.73.19v0a.66.66,0,0,0,.55-.57.61.61,0,0,0-.28-.54,1.58,1.58,0,0,0-.92-.19,6.91,6.91,0,0,0-1,.08v2.48h.68v-.94h.26a.41.41,0,0,1,.47.37,1.8,1.8,0,0,0,.18.57h.76a2.12,2.12,0,0,1-.19-.6.74.74,0,0,0-.47-.63" transform="translate(-442.32 -156.54)"/></svg>